<svg width="520" height="360" viewBox="0 0 520 360" fill="none" xmlns="http://www.w3.org/2000/svg">
  <rect width="520" height="360" rx="42" fill="#FFF3D0"/>
  <circle cx="123" cy="95" r="34" fill="#FFD86E"/>
  <circle cx="412" cy="260" r="40" fill="#CDEAFF"/>
  <path d="M106 219C106 164 150 120 205 120H328C383 120 427 164 427 219V235C427 290 383 334 328 334H205C150 334 106 290 106 235V219Z" fill="#FFFFFF"/>
  <path d="M141 225C141 187 172 156 210 156H324C362 156 393 187 393 225V229C393 267 362 298 324 298H210C172 298 141 267 141 229V225Z" fill="#8AD3FF"/>
  <ellipse cx="234" cy="229" rx="22" ry="24" fill="#222B45"/>
  <ellipse cx="302" cy="229" rx="22" ry="24" fill="#222B45"/>
  <ellipse cx="228" cy="222" rx="7" ry="8" fill="#FFFFFF"/>
  <ellipse cx="296" cy="222" rx="7" ry="8" fill="#FFFFFF"/>
  <path d="M221 265C236 282 286 282 301 265" stroke="#222B45" stroke-width="9" stroke-linecap="round"/>
  <rect x="170" y="73" width="182" height="52" rx="26" fill="#FF9E7A"/>
  <text x="261" y="106" text-anchor="middle" font-family="Trebuchet MS, sans-serif" font-size="24" font-weight="700" fill="#FFFFFF">Lingo Buddy</text>
</svg>
